<svg xmlns="http://www.w3.org/2000/svg" viewBox="0 0 32 32" width="32" height="32">
  <!-- Background circle -->
  <circle cx="16" cy="16" r="15" fill="#1e40af" stroke="#1d4ed8" stroke-width="2"/>
  
  <!-- Clipboard/list background -->
  <rect x="9" y="7" width="14" height="18" rx="2" fill="#f8fafc" stroke="#e2e8f0" stroke-width="0.5"/>
  
  <!-- Clipboard clip -->
  <rect x="13" y="5" width="6" height="4" rx="1" fill="#64748b"/>
  
  <!-- Todo list items -->
  <!-- Completed task 1 -->
  <circle cx="12" cy="12" r="1.5" fill="#22c55e"/>
  <path d="M11 12 L12 13 L13.5 11.5" stroke="white" stroke-width="0.8" fill="none" stroke-linecap="round" stroke-linejoin="round"/>
  <line x1="15" y1="12" x2="20" y2="12" stroke="#64748b" stroke-width="0.8" stroke-linecap="round"/>
  
  <!-- Completed task 2 -->
  <circle cx="12" cy="16" r="1.5" fill="#22c55e"/>
  <path d="M11 16 L12 17 L13.5 15.5" stroke="white" stroke-width="0.8" fill="none" stroke-linecap="round" stroke-linejoin="round"/>
  <line x1="15" y1="16" x2="20" y2="16" stroke="#64748b" stroke-width="0.8" stroke-linecap="round"/>
  
  <!-- Pending task -->
  <circle cx="12" cy="20" r="1.5" fill="none" stroke="#e2e8f0" stroke-width="1"/>
  <line x1="15" y1="20" x2="20" y2="20" stroke="#94a3b8" stroke-width="0.8" stroke-linecap="round"/>
  
  <!-- Hammer icon (small, subtle forge reference) -->
  <g transform="translate(19,8) scale(0.4)">
    <rect x="0" y="0" width="8" height="4" rx="1" fill="#ef4444"/>
    <rect x="3" y="4" width="1.5" height="10" fill="#92400e"/>
  </g>
  
  <!-- "Forging" spark -->
  <circle cx="26" cy="10" r="1" fill="#fbbf24" opacity="0.8"/>
</svg>